<svg width="22" height="18" viewBox="0 0 22 18" fill="none" xmlns="http://www.w3.org/2000/svg">
<path d="M1 11.441L10.6422 16.2621C10.7734 16.3277 10.839 16.3605 10.9078 16.3734C10.9687 16.3848 11.0313 16.3848 11.0922 16.3734C11.161 16.3605 11.2266 16.3277 11.3578 16.2621L21 11.441M1 6.44098L10.6422 1.61987C10.7734 1.55428 10.839 1.52148 10.9078 1.50857C10.9687 1.49714 11.0313 1.49714 11.0922 1.50857C11.161 1.52148 11.2266 1.55428 11.3578 1.61987L21 6.44098L11.3578 11.2621C11.2266 11.3277 11.161 11.3605 11.0922 11.3734C11.0313 11.3848 10.9687 11.3848 10.9078 11.3734C10.839 11.3605 10.7734 11.3277 10.6422 11.2621L1 6.44098Z" stroke="black" stroke-width="2" stroke-linecap="round" stroke-linejoin="round"/>
</svg>
