<svg width="20" height="22" viewBox="0 0 20 22" fill="none" xmlns="http://www.w3.org/2000/svg">
<path d="M18.5 6.21875L9.99997 10.941M9.99997 10.941L1.49997 6.21875M9.99997 10.941L10 20.441M19 14.9996V6.88245C19 6.5398 19 6.36848 18.9495 6.21568C18.9049 6.08051 18.8318 5.95643 18.7354 5.85174C18.6263 5.7334 18.4766 5.6502 18.177 5.4838L10.777 1.37268C10.4934 1.21513 10.3516 1.13635 10.2015 1.10546C10.0685 1.07813 9.93146 1.07813 9.79855 1.10546C9.64838 1.13635 9.50658 1.21513 9.22297 1.37269L1.82297 5.4838C1.52345 5.6502 1.37369 5.7334 1.26463 5.85174C1.16816 5.95643 1.09515 6.08051 1.05048 6.21569C1 6.36849 1 6.53981 1 6.88245V14.9996C1 15.3422 1 15.5135 1.05048 15.6663C1.09515 15.8015 1.16816 15.9256 1.26463 16.0303C1.37369 16.1486 1.52345 16.2318 1.82297 16.3982L9.22297 20.5093C9.50658 20.6669 9.64838 20.7457 9.79855 20.7765C9.93146 20.8039 10.0685 20.8039 10.2015 20.7765C10.3516 20.7457 10.4934 20.6669 10.777 20.5093L18.177 16.3982C18.4766 16.2318 18.6263 16.1486 18.7354 16.0303C18.8318 15.9256 18.9049 15.8015 18.9495 15.6663C19 15.5135 19 15.3422 19 14.9996Z" stroke="black" stroke-width="2" stroke-linecap="round" stroke-linejoin="round"/>
</svg>
