<svg width="22" height="22" viewBox="0 0 22 22" fill="none" xmlns="http://www.w3.org/2000/svg">
<path fill-rule="evenodd" clip-rule="evenodd" d="M8.55773 0.440922C8.56547 0.440924 8.57327 0.440925 8.58115 0.440925L13.4423 0.440922C13.5525 0.440895 13.6484 0.440871 13.7399 0.446412C14.8967 0.516474 15.9097 1.24661 16.342 2.32193C16.3762 2.40698 16.4065 2.49795 16.4413 2.60251L16.4487 2.6247C16.4951 2.76387 16.5051 2.79265 16.5137 2.81392C16.6578 3.17236 16.9955 3.41574 17.3811 3.4391C17.4037 3.44047 17.4376 3.44093 17.5944 3.44093C17.6133 3.44093 17.632 3.44092 17.6503 3.44092C17.9651 3.44085 18.1965 3.44081 18.3944 3.46042C20.2917 3.64839 21.7925 5.14928 21.9805 7.04654C22.0001 7.2444 22.0001 7.46645 22 7.76627C22 7.78331 22 7.8006 22 7.81815V15.6823C22 16.4872 22 17.1516 21.9558 17.6928C21.9099 18.2548 21.8113 18.7716 21.564 19.2569C21.1805 20.0095 20.5686 20.6215 19.816 21.005C19.3306 21.2522 18.8139 21.3508 18.2518 21.3967C17.7106 21.4409 17.0463 21.4409 16.2413 21.4409H5.75869C4.95373 21.4409 4.28938 21.4409 3.74819 21.3967C3.18609 21.3508 2.66939 21.2522 2.18405 21.005C1.4314 20.6215 0.819481 20.0095 0.435988 19.2569C0.188697 18.7716 0.0901326 18.2548 0.0442074 17.6928C-9.93162e-06 17.1516 5.57831e-07 16.4872 1.33132e-05 15.6822L1.37901e-05 7.81815C1.37901e-05 7.8006 1.02138e-05 7.78331 6.75671e-06 7.76627C-5.48745e-05 7.46645 -0.000100413 7.2444 0.0195037 7.04654C0.207482 5.14928 1.70837 3.64839 3.60563 3.46042C3.80355 3.44081 4.03488 3.44085 4.34974 3.44092C4.36807 3.44092 4.38669 3.44093 4.4056 3.44093C4.5624 3.44093 4.59634 3.44047 4.61895 3.4391C5.00456 3.41574 5.34223 3.17236 5.48633 2.81392C5.49488 2.79265 5.50494 2.76387 5.55133 2.6247C5.55382 2.61721 5.55629 2.6098 5.55874 2.60246C5.59356 2.49792 5.62385 2.40696 5.65804 2.32193C6.09033 1.24661 7.10334 0.516474 8.26018 0.446412C8.35166 0.440871 8.44753 0.440895 8.55773 0.440922ZM8.58115 2.44093C8.43445 2.44093 8.40396 2.44137 8.38108 2.44275C7.99547 2.46611 7.6578 2.70949 7.5137 3.06793C7.50515 3.0892 7.49509 3.11798 7.4487 3.25715C7.4462 3.26464 7.44373 3.27205 7.44129 3.2794C7.40647 3.38393 7.37618 3.47489 7.34199 3.55992C6.9097 4.63524 5.89669 5.36538 4.73985 5.43544C4.64831 5.44098 4.54794 5.44096 4.43125 5.44093C4.42278 5.44093 4.41424 5.44093 4.4056 5.44093C4.01081 5.44093 3.88845 5.44219 3.80282 5.45067C2.85419 5.54466 2.10375 6.2951 2.00976 7.24373C2.00124 7.32969 2.00001 7.44389 2.00001 7.81815V15.6409C2.00001 16.4975 2.00079 17.0798 2.03757 17.5299C2.07339 17.9683 2.13831 18.1925 2.218 18.3489C2.40975 18.7252 2.71571 19.0312 3.09203 19.2229C3.24843 19.3026 3.47264 19.3676 3.91105 19.4034C4.36114 19.4401 4.94343 19.4409 5.80001 19.4409H16.2C17.0566 19.4409 17.6389 19.4401 18.089 19.4034C18.5274 19.3676 18.7516 19.3026 18.908 19.2229C19.2843 19.0312 19.5903 18.7252 19.782 18.3489C19.8617 18.1925 19.9266 17.9683 19.9625 17.5299C19.9992 17.0798 20 16.4975 20 15.6409V7.81815C20 7.4439 19.9988 7.32969 19.9903 7.24373C19.8963 6.2951 19.1458 5.54466 18.1972 5.45067C18.1116 5.44219 17.9892 5.44093 17.5944 5.44093L17.5688 5.44093C17.4521 5.44096 17.3517 5.44098 17.2602 5.43544C16.1033 5.36538 15.0903 4.63524 14.658 3.55992C14.6238 3.47487 14.5935 3.3839 14.5587 3.27934L14.5513 3.25715C14.5049 3.11798 14.4949 3.0892 14.4863 3.06793C14.3422 2.70949 14.0046 2.46611 13.6189 2.44275C13.5961 2.44137 13.5656 2.44093 13.4189 2.44093H8.58115ZM11 8.94093C9.34316 8.94093 8.00001 10.2841 8.00001 11.9409C8.00001 13.5978 9.34316 14.9409 11 14.9409C12.6569 14.9409 14 13.5978 14 11.9409C14 10.2841 12.6569 8.94093 11 8.94093ZM6.00001 11.9409C6.00001 9.1795 8.23859 6.94093 11 6.94093C13.7614 6.94093 16 9.1795 16 11.9409C16 14.7023 13.7614 16.9409 11 16.9409C8.23859 16.9409 6.00001 14.7023 6.00001 11.9409Z" fill="black"/>
</svg>
