<svg width="20" height="21" viewBox="0 0 20 21" fill="none" xmlns="http://www.w3.org/2000/svg">
<path d="M6 1.94092H5.8C4.11984 1.94092 3.27976 1.94092 2.63803 2.2679C2.07354 2.55552 1.6146 3.01446 1.32698 3.57895C1 4.22068 1 5.06076 1 6.74092V6.94092M6 19.9409H5.8C4.11984 19.9409 3.27976 19.9409 2.63803 19.6139C2.07354 19.3263 1.6146 18.8674 1.32698 18.3029C1 17.6612 1 16.8211 1 15.1409V14.9409M19 6.94092V6.74092C19 5.06076 19 4.22068 18.673 3.57895C18.3854 3.01446 17.9265 2.55552 17.362 2.2679C16.7202 1.94092 15.8802 1.94092 14.2 1.94092H14M19 14.9409V15.1409C19 16.8211 19 17.6612 18.673 18.3029C18.3854 18.8674 17.9265 19.3263 17.362 19.6139C16.7202 19.9409 15.8802 19.9409 14.2 19.9409H14" stroke="black" stroke-width="2" stroke-linecap="round" stroke-linejoin="round"/>
</svg>
