<svg width="20" height="21" viewBox="0 0 20 21" fill="none" xmlns="http://www.w3.org/2000/svg">
<path d="M6.4 1.94092H2.6C2.03995 1.94092 1.75992 1.94092 1.54601 2.04991C1.35785 2.14578 1.20487 2.29877 1.10899 2.48693C1 2.70084 1 2.98087 1 3.54092V7.34092C1 7.90097 1 8.181 1.10899 8.39491C1.20487 8.58307 1.35785 8.73605 1.54601 8.83192C1.75992 8.94092 2.03995 8.94092 2.6 8.94092H6.4C6.96005 8.94092 7.24008 8.94092 7.45399 8.83192C7.64215 8.73605 7.79513 8.58307 7.89101 8.39491C8 8.181 8 7.90097 8 7.34092V3.54092C8 2.98087 8 2.70084 7.89101 2.48693C7.79513 2.29877 7.64215 2.14578 7.45399 2.04991C7.24008 1.94092 6.96005 1.94092 6.4 1.94092Z" stroke="black" stroke-width="2" stroke-linecap="round" stroke-linejoin="round"/>
<path d="M17.4 1.94092H13.6C13.0399 1.94092 12.7599 1.94092 12.546 2.04991C12.3578 2.14578 12.2049 2.29877 12.109 2.48693C12 2.70084 12 2.98087 12 3.54092V7.34092C12 7.90097 12 8.181 12.109 8.39491C12.2049 8.58307 12.3578 8.73605 12.546 8.83192C12.7599 8.94092 13.0399 8.94092 13.6 8.94092H17.4C17.9601 8.94092 18.2401 8.94092 18.454 8.83192C18.6422 8.73605 18.7951 8.58307 18.891 8.39491C19 8.181 19 7.90097 19 7.34092V3.54092C19 2.98087 19 2.70084 18.891 2.48693C18.7951 2.29877 18.6422 2.14578 18.454 2.04991C18.2401 1.94092 17.9601 1.94092 17.4 1.94092Z" stroke="black" stroke-width="2" stroke-linecap="round" stroke-linejoin="round"/>
<path d="M17.4 12.9409H13.6C13.0399 12.9409 12.7599 12.9409 12.546 13.0499C12.3578 13.1458 12.2049 13.2988 12.109 13.4869C12 13.7008 12 13.9809 12 14.5409V18.3409C12 18.901 12 19.181 12.109 19.3949C12.2049 19.5831 12.3578 19.7361 12.546 19.8319C12.7599 19.9409 13.0399 19.9409 13.6 19.9409H17.4C17.9601 19.9409 18.2401 19.9409 18.454 19.8319C18.6422 19.7361 18.7951 19.5831 18.891 19.3949C19 19.181 19 18.901 19 18.3409V14.5409C19 13.9809 19 13.7008 18.891 13.4869C18.7951 13.2988 18.6422 13.1458 18.454 13.0499C18.2401 12.9409 17.9601 12.9409 17.4 12.9409Z" stroke="black" stroke-width="2" stroke-linecap="round" stroke-linejoin="round"/>
<path d="M6.4 12.9409H2.6C2.03995 12.9409 1.75992 12.9409 1.54601 13.0499C1.35785 13.1458 1.20487 13.2988 1.10899 13.4869C1 13.7008 1 13.9809 1 14.5409V18.3409C1 18.901 1 19.181 1.10899 19.3949C1.20487 19.5831 1.35785 19.7361 1.54601 19.8319C1.75992 19.9409 2.03995 19.9409 2.6 19.9409H6.4C6.96005 19.9409 7.24008 19.9409 7.45399 19.8319C7.64215 19.7361 7.79513 19.5831 7.89101 19.3949C8 19.181 8 18.901 8 18.3409V14.5409C8 13.9809 8 13.7008 7.89101 13.4869C7.79513 13.2988 7.64215 13.1458 7.45399 13.0499C7.24008 12.9409 6.96005 12.9409 6.4 12.9409Z" stroke="black" stroke-width="2" stroke-linecap="round" stroke-linejoin="round"/>
</svg>
