<svg width="18" height="19" viewBox="0 0 18 19" fill="none" xmlns="http://www.w3.org/2000/svg">
<path d="M13.3429 1.94092H4.65714C3.37702 1.94092 2.73696 1.94092 2.24802 2.19005C1.81794 2.40919 1.46827 2.75885 1.24913 3.18894C1 3.67788 1 4.31794 1 5.59806V14.2838C1 15.5639 1 16.204 1.24913 16.6929C1.46827 17.123 1.81794 17.4727 2.24802 17.6918C2.73696 17.9409 3.37702 17.9409 4.65714 17.9409H13.3429C14.623 17.9409 15.263 17.9409 15.752 17.6918C16.1821 17.4727 16.5317 17.123 16.7509 16.6929C17 16.204 17 15.5639 17 14.2838V5.59806C17 4.31794 17 3.67788 16.7509 3.18894C16.5317 2.75885 16.1821 2.40919 15.752 2.19005C15.263 1.94092 14.623 1.94092 13.3429 1.94092Z" stroke="black" stroke-width="2" stroke-linecap="round" stroke-linejoin="round"/>
</svg>
