<svg width="18" height="23" viewBox="0 0 18 23" fill="none" xmlns="http://www.w3.org/2000/svg">
<path fill-rule="evenodd" clip-rule="evenodd" d="M2.29209 4.52144C2.01022 4.77134 2 4.91538 2 4.94092C2 4.96645 2.01022 5.11049 2.29209 5.36039C2.57279 5.60926 3.03602 5.87906 3.69427 6.12591C5.0034 6.61683 6.87903 6.94092 9 6.94092C11.121 6.94092 12.9966 6.61683 14.3057 6.12591C14.964 5.87906 15.4272 5.60926 15.7079 5.36039C15.9898 5.11049 16 4.96645 16 4.94092C16 4.91538 15.9898 4.77134 15.7079 4.52144C15.4272 4.27257 14.964 4.00277 14.3057 3.75593C12.9966 3.265 11.121 2.94092 9 2.94092C6.87903 2.94092 5.0034 3.265 3.69427 3.75593C3.03602 4.00277 2.57279 4.27257 2.29209 4.52144ZM16 7.55711C15.6909 7.72073 15.3574 7.86754 15.008 7.99857C13.4217 8.59343 11.2973 8.94092 9 8.94092C6.70269 8.94092 4.57833 8.59343 2.99202 7.99857C2.64262 7.86754 2.3091 7.72073 2 7.55711V9.60752C2 9.63305 2.01022 9.77709 2.29209 10.027C2.57279 10.2759 3.03602 10.5457 3.69427 10.7925C5.0034 11.2834 6.87903 11.6075 9 11.6075C11.121 11.6075 12.9966 11.2834 14.3057 10.7925C14.964 10.5457 15.4272 10.2759 15.7079 10.027C15.9898 9.77709 16 9.63305 16 9.60752V7.55711ZM18 4.94092C18 4.13802 17.5625 3.49285 17.0347 3.02492C16.5058 2.55596 15.7974 2.17932 15.008 1.88327C13.4217 1.2884 11.2973 0.940918 9 0.940918C6.70269 0.940918 4.57833 1.2884 2.99202 1.88327C2.20256 2.17932 1.49422 2.55596 0.965273 3.02492C0.437492 3.49285 0 4.13802 0 4.94092V18.9409C0 19.7438 0.437492 20.389 0.965273 20.8569C1.49422 21.3259 2.20256 21.7025 2.99202 21.9986C4.57833 22.5934 6.70269 22.9409 9 22.9409C11.2973 22.9409 13.4217 22.5934 15.008 21.9986C15.7974 21.7025 16.5058 21.3259 17.0347 20.8569C17.5625 20.389 18 19.7438 18 18.9409V4.94092ZM16 12.2237C15.6909 12.3873 15.3574 12.5341 15.008 12.6652C13.4217 13.26 11.2973 13.6075 9 13.6075C6.70269 13.6075 4.57833 13.26 2.99202 12.6652C2.64262 12.5341 2.3091 12.3873 2 12.2237V14.2709C2 14.2965 2.01022 14.4405 2.29209 14.6904C2.57279 14.9393 3.03602 15.2091 3.69427 15.4559C5.0034 15.9468 6.87903 16.2709 9 16.2709C11.121 16.2709 12.9966 15.9468 14.3057 15.4559C14.964 15.2091 15.4272 14.9393 15.7079 14.6904C15.9898 14.4405 16 14.2965 16 14.2709V12.2237ZM16 16.8871C15.6909 17.0507 15.3574 17.1975 15.008 17.3286C13.4217 17.9234 11.2973 18.2709 9 18.2709C6.70269 18.2709 4.57833 17.9234 2.99202 17.3286C2.64262 17.1975 2.3091 17.0507 2 16.8871V18.9409C2 18.9665 2.01022 19.1105 2.29209 19.3604C2.57279 19.6093 3.03602 19.8791 3.69427 20.1259C5.0034 20.6168 6.87903 20.9409 9 20.9409C11.121 20.9409 12.9966 20.6168 14.3057 20.1259C14.964 19.8791 15.4272 19.6093 15.7079 19.3604C15.9898 19.1105 16 18.9665 16 18.9409V16.8871Z" fill="black"/>
</svg>
