<svg width="20" height="23" viewBox="0 0 20 23" fill="none" xmlns="http://www.w3.org/2000/svg">
<path d="M14 5.94092V5.14092C14 4.02081 14 3.46076 13.782 3.03294C13.5903 2.65661 13.2843 2.35065 12.908 2.1589C12.4802 1.94092 11.9201 1.94092 10.8 1.94092H9.2C8.07989 1.94092 7.51984 1.94092 7.09202 2.1589C6.71569 2.35065 6.40973 2.65661 6.21799 3.03294C6 3.46076 6 4.02081 6 5.14092V5.94092M8 11.4409V16.4409M12 11.4409V16.4409M1 5.94092H19M17 5.94092V17.1409C17 18.8211 17 19.6612 16.673 20.3029C16.3854 20.8674 15.9265 21.3263 15.362 21.6139C14.7202 21.9409 13.8802 21.9409 12.2 21.9409H7.8C6.11984 21.9409 5.27976 21.9409 4.63803 21.6139C4.07354 21.3263 3.6146 20.8674 3.32698 20.3029C3 19.6612 3 18.8211 3 17.1409V5.94092" stroke="black" stroke-width="2" stroke-linecap="round" stroke-linejoin="round"/>
</svg>
