<svg width="18" height="21" viewBox="0 0 18 21" fill="none" xmlns="http://www.w3.org/2000/svg">
<path d="M4 8.94092V6.94092C4 4.17949 6.23858 1.94092 9 1.94092C11.0503 1.94092 12.8124 3.17501 13.584 4.94092M9 13.4409V15.4409M5.8 19.9409H12.2C13.8802 19.9409 14.7202 19.9409 15.362 19.6139C15.9265 19.3263 16.3854 18.8674 16.673 18.3029C17 17.6612 17 16.8211 17 15.1409V13.7409C17 12.0608 17 11.2207 16.673 10.5789C16.3854 10.0145 15.9265 9.55552 15.362 9.2679C14.7202 8.94092 13.8802 8.94092 12.2 8.94092H5.8C4.11984 8.94092 3.27976 8.94092 2.63803 9.2679C2.07354 9.55552 1.6146 10.0145 1.32698 10.5789C1 11.2207 1 12.0608 1 13.7409V15.1409C1 16.8211 1 17.6612 1.32698 18.3029C1.6146 18.8674 2.07354 19.3263 2.63803 19.6139C3.27976 19.9409 4.11984 19.9409 5.8 19.9409Z" stroke="black" stroke-width="2" stroke-linecap="round" stroke-linejoin="round"/>
</svg>
