<svg width="22" height="18" viewBox="0 0 22 18" fill="none" xmlns="http://www.w3.org/2000/svg">
<path fill-rule="evenodd" clip-rule="evenodd" d="M9 3.35506L6.17574 6.17933C6.16402 6.19104 6.15202 6.20312 6.13972 6.21548C6.00579 6.35013 5.83714 6.51968 5.63079 6.64613C5.45185 6.75579 5.25676 6.8366 5.05268 6.88559C4.81735 6.94209 4.57821 6.94145 4.3883 6.94094C4.37086 6.9409 4.35383 6.94085 4.33726 6.94085H2.60001C2.30348 6.94085 2.14122 6.94163 2.02464 6.95115C2.02 6.95153 2.0156 6.95192 2.01145 6.9523C2.01107 6.95645 2.01069 6.96084 2.01031 6.96548C2.00078 7.08207 2.00001 7.24432 2.00001 7.54085V10.3409C2.00001 10.6374 2.00078 10.7996 2.01031 10.9162C2.01069 10.9209 2.01107 10.9253 2.01145 10.9294C2.0156 10.9298 2.02 10.9302 2.02464 10.9305C2.14122 10.9401 2.30348 10.9409 2.60001 10.9409H4.33726C4.35383 10.9409 4.37086 10.9408 4.3883 10.9408C4.57821 10.9403 4.81735 10.9396 5.05268 10.9961C5.25676 11.0451 5.45185 11.1259 5.63079 11.2356C5.83715 11.362 6.00579 11.5316 6.13972 11.6662C6.15202 11.6786 6.16403 11.6907 6.17574 11.7024L9 14.5266V3.35506ZM9.38232 0.652581C9.86099 0.614909 10.3288 0.808671 10.6406 1.17379C10.9199 1.50073 10.9642 1.89399 10.9811 2.08488C11.0001 2.29885 11 2.56461 11 2.83498C11 2.84739 11 2.8598 11 2.87222L11 15.0467C11 15.3171 11.0001 15.5829 10.9811 15.7968C10.9642 15.9877 10.9199 16.381 10.6406 16.7079C10.3288 17.073 9.86099 17.2668 9.38232 17.2291C8.95368 17.1954 8.64424 16.9487 8.4973 16.8257C8.33259 16.6878 8.1447 16.4998 7.95355 16.3086L4.76153 13.1166C4.6689 13.024 4.6225 12.9779 4.58738 12.9458C4.58646 12.945 4.58557 12.9442 4.58472 12.9434C4.58358 12.9434 4.58238 12.9433 4.58114 12.9433C4.53365 12.9411 4.46826 12.9409 4.33726 12.9409L2.56812 12.9409C2.31574 12.9409 2.06994 12.9409 1.86178 12.9239C1.63318 12.9052 1.36345 12.8612 1.09202 12.7229C0.715699 12.5311 0.409738 12.2252 0.217992 11.8488C0.0796948 11.5774 0.0356272 11.3077 0.0169504 11.0791C-5.6861e-05 10.8709 -2.74161e-05 10.6251 2.50544e-06 10.3727L5.12804e-06 7.54085C5.12804e-06 7.53021 3.81674e-06 7.51957 2.50544e-06 7.50895C-2.74161e-05 7.25657 -5.6861e-05 7.01078 0.0169504 6.80262C0.0356272 6.57403 0.0796948 6.30429 0.217992 6.03287C0.409739 5.65655 0.7157 5.35058 1.09202 5.15884C1.36345 5.02054 1.63318 4.97647 1.86178 4.9578C2.06993 4.94079 2.31572 4.94082 2.56811 4.94085C2.57873 4.94085 2.58936 4.94085 2.60001 4.94085H4.33726C4.46826 4.94085 4.53365 4.94061 4.58114 4.93844C4.58238 4.93838 4.58358 4.93833 4.58472 4.93827C4.58557 4.9375 4.58646 4.93669 4.58738 4.93585C4.6225 4.90381 4.6689 4.85775 4.76153 4.76511L7.92721 1.59943C7.93599 1.59065 7.94477 1.58187 7.95354 1.5731C8.1447 1.38188 8.33259 1.19393 8.4973 1.05604C8.64424 0.933022 8.95368 0.686316 9.38232 0.652581ZM18.1639 1.12907C18.6123 0.806557 19.2372 0.90855 19.5597 1.35688C21.0953 3.49158 22 6.11204 22 8.94085C22 11.7697 21.0953 14.3901 19.5597 16.5248C19.2372 16.9732 18.6123 17.0751 18.1639 16.7526C17.7156 16.4301 17.6136 15.8052 17.9361 15.3569C19.2352 13.5511 20 11.3368 20 8.94085C20 6.54492 19.2352 4.3306 17.9361 2.52482C17.6136 2.07649 17.7156 1.45159 18.1639 1.12907ZM14.1732 4.12067C14.6262 3.8047 15.2495 3.91578 15.5655 4.36875C16.4696 5.66496 17 7.24247 17 8.94085C17 10.6392 16.4696 12.2167 15.5655 13.5129C15.2495 13.9659 14.6262 14.077 14.1732 13.761C13.7202 13.4451 13.6092 12.8217 13.9251 12.3688C14.6027 11.3973 15 10.217 15 8.94085C15 7.66474 14.6027 6.48441 13.9251 5.51295C13.6092 5.05997 13.7202 4.43663 14.1732 4.12067Z" fill="black"/>
</svg>
