<svg width="22" height="23" viewBox="0 0 22 23" fill="none" xmlns="http://www.w3.org/2000/svg">
<path d="M2.07598 7.42374L6.36402 10.4866C6.58715 10.6459 6.69872 10.7256 6.81548 10.744C6.91821 10.7601 7.02343 10.7439 7.11648 10.6974C7.22223 10.6446 7.30449 10.5349 7.46901 10.3156L8.37511 9.10743C8.42164 9.0454 8.4449 9.01439 8.47224 8.98763C8.49652 8.96387 8.52315 8.94265 8.55173 8.92429C8.58392 8.90362 8.61935 8.88787 8.6902 8.85638L12.5588 7.13701C12.7192 7.06573 12.7993 7.0301 12.8598 6.97444C12.9133 6.92522 12.9554 6.86492 12.9832 6.79776C13.0146 6.72182 13.0204 6.63427 13.0321 6.45917L13.3154 2.21032M12.5 13.4409L15.116 14.5621C15.4195 14.6921 15.5713 14.7572 15.6517 14.8652C15.7222 14.96 15.7569 15.0767 15.7496 15.1946C15.7413 15.329 15.6497 15.4664 15.4665 15.7411L14.2375 17.5847C14.1507 17.7149 14.1072 17.7801 14.0499 17.8272C13.9991 17.8689 13.9406 17.9003 13.8777 17.9194C13.8067 17.9409 13.7284 17.9409 13.5719 17.9409H11.5766C11.3693 17.9409 11.2656 17.9409 11.1774 17.9062C11.0995 17.8756 11.0305 17.8259 10.9768 17.7617C10.916 17.689 10.8832 17.5906 10.8177 17.3939L10.1048 15.2553C10.0661 15.1393 10.0468 15.0813 10.0417 15.0223C10.0372 14.97 10.0409 14.9174 10.0528 14.8663C10.0662 14.8086 10.0935 14.7539 10.1482 14.6445L10.6897 13.5615C10.7997 13.3415 10.8547 13.2314 10.9395 13.1631C11.0141 13.1029 11.1046 13.0655 11.1999 13.0552C11.3081 13.0436 11.4248 13.0825 11.6582 13.1603L12.5 13.4409ZM21 11.9409C21 17.4638 16.5228 21.9409 11 21.9409C5.47715 21.9409 1 17.4638 1 11.9409C1 6.41807 5.47715 1.94092 11 1.94092C16.5228 1.94092 21 6.41807 21 11.9409Z" stroke="black" stroke-width="2" stroke-linecap="round" stroke-linejoin="round"/>
</svg>
